<mxfile host="app.diagrams.net" modified="2023-09-24T18:27:24.882Z" agent="Mozilla/5.0 (Macintosh; Intel Mac OS X 10.15; rv:109.0) Gecko/20100101 Firefox/117.0" version="21.8.1" etag="q8tsTvwpHdfFxVXVeTBM" type="github">
  <diagram name="PÃ¡gina-1" id="aCBEQ93xpD7XEJ4IL730">
    <mxGraphModel>
      <root>
        <mxCell id="0" />
        <mxCell id="1" parent="0" />
      </root>
    </mxGraphModel>
  </diagram>
</mxfile>
